<svg xmlns="http://www.w3.org/2000/svg" width="1240" height="1240"><path d="M0 620.001v620.001l620.25-.251 620.25-.251.251-619.75.251-619.75H0v620.001m.497.499c0 341 .114 480.649.253 310.332s.139-449.317 0-620S.497 279.5.497 620.5M96 96c-1.99 1.99-2 3.333-2 266.277 0 237.574.157 264.503 1.557 266.5L97.113 631H333v84c0 82.667.032 84.032 2 86 1.977 1.977 3.333 2 119.5 2H572v83.929c0 74.965.168 84.096 1.571 85.5 1.411 1.41 13.579 1.571 118.984 1.571h117.412l.266 83.895c.257 80.895.335 83.971 2.172 86l1.905 2.105h163.845c162.512 0 163.861-.016 165.845-2 1.99-1.99 2-3.333 2-266.277 0-237.574-.157-264.503-1.557-266.5l-1.556-2.223H907v-84c0-82.667-.032-84.032-2-86-1.977-1.977-3.333-2-119.5-2H668v-83.929c0-74.965-.168-84.096-1.571-85.5-1.411-1.41-13.579-1.571-118.984-1.571H430.033l-.266-83.895c-.257-80.895-.335-83.971-2.172-86L425.69 94H261.845C99.333 94 97.984 94.016 96 96m10 266.5V619h227v-60h-74.378c-67.965 0-74.495-.143-75.75-1.654-1.08-1.302-1.372-6.846-1.372-26.08 0-23.026.111-24.509 1.941-25.847 1.635-1.195 13.584-1.419 75.75-1.419H333V386.887l-4.25 2.605c-20.14 12.347-38.996 18.156-62.25 19.178-34.827 1.53-67.011-11.098-92.057-36.122-23.783-23.763-36.438-53.997-36.436-87.048.007-86.312 84.834-146.016 166.194-116.971 26.833 9.58 50.44 29.502 65.139 54.971 5.951 10.312 9.202 18.43 12.604 31.475l2.745 10.525H417.5l.256-79.75.256-79.75H106v256.5m239 171.497V791h227v-60h-74c-72.667 0-74.036-.036-76-2-1.887-1.887-2-3.333-2-25.545v-23.546l2.455-2.454 2.454-2.455H572v-58c0-31.9-.22-58-.488-58s-4.43 2.26-9.248 5.023c-52.558 30.136-120.145 17.628-157.659-29.177-17.86-22.283-26.51-45.539-27.384-73.618-.669-21.488 2.469-38.099 10.528-55.728 17.191-37.608 51.599-64.03 92.615-71.119 13.079-2.26 35.888-1.521 48.58 1.574 46.494 11.337 82.367 47.505 92.536 93.295l1.721 7.75h33.811l-.256-79.75-.256-79.75-155.75-.253-155.75-.253v257.003M583.248 705.75l.252 256.75 113.25.254 113.25.255V902h-73.845c-70.27 0-73.925-.089-75.5-1.829-1.443-1.595-1.655-4.901-1.655-25.845 0-21.996.154-24.155 1.829-25.671 1.667-1.508 8.351-1.655 75.5-1.655H810V730.025l-5.25 3.351c-11.872 7.577-25.407 12.986-40.784 16.3-11.775 2.537-37.126 2.539-48.966.004-49.503-10.599-86.987-47.988-97.049-96.8-2.455-11.91-2.942-32.757-1.037-44.38 7.836-47.818 43.718-87.469 90.583-100.097 43.546-11.733 90.683 1.686 122.048 34.745 7.504 7.91 16.32 20.515 21.23 30.352 3.403 6.818 8.739 22.208 9.734 28.072 1.368 8.072-.198 7.428 18.058 7.428H895V449H582.996l.252 256.75M822 877.5V1134h312V621H822v256.5m139.5-200.793c-27.022 3.667-54.799 17.961-73.264 37.699-34.501 36.883-43.546 89.442-23.306 135.435 16.223 36.865 50.643 64.058 90.86 71.782 12.764 2.452 33.814 2.207 47.049-.546 51.846-10.786 90.619-52.204 98.215-104.913 1.499-10.405.697-31.926-1.571-42.164-5.516-24.889-17.342-45.897-35.914-63.797-17.87-17.224-39.938-28.466-64.069-32.64-8.299-1.435-30.111-1.927-38-.856M901 1019.294l-2.5 1.264-.268 24.873c-.238 22.086-.08 25.079 1.405 26.721 1.6 1.767 5.042 1.848 78.447 1.848 83.461 0 79.051.294 80.47-5.36.307-1.221.42-12.255.252-24.52-.303-22.059-.332-22.321-2.667-24.21-2.277-1.842-5.02-1.909-77.5-1.895-58.553.011-75.691.294-77.639 1.279" fill="undefined" fill-rule="evenodd"/></svg>